<?xml version="1.0" encoding="utf-8"?>
<!-- Generator: Adobe Illustrator 19.2.1, SVG Export Plug-In . SVG Version: 6.00 Build 0)  -->
<svg version="1.1" id="layer" xmlns="http://www.w3.org/2000/svg" xmlns:xlink="http://www.w3.org/1999/xlink" x="0px" y="0px"
	 viewBox="0 0 652 652" style="enable-background:new 0 0 652 652;" xml:space="preserve">
<style type="text/css">
	.st0{fill:#03AC0E;}
</style>
<path class="st0" d="M347.3,352c-6.5,6.6-14.3,10-23.4,10c-7.3,0-13.5-1.5-19.9-5.2v-15.2c5.1,3.5,11.5,6.8,17.8,6.8
	c13.2,0,21-9.1,21-22c0-12.9-8.1-22.3-21.3-22.3c-5.9,0-10.7,2.1-14.4,6.4c-4,4.6-6.1,11.2-6.1,20v60.2h-1
	c-7.3,0-13.2-5.9-13.2-13.2c0,0,0,0,0,0v-49.2c0-20.9,12.7-37.8,34.6-37.8c10.8,0,19.5,3.7,26.2,11.2c6.2,7,9.3,15.8,9.3,26.4
	C357.1,337.3,353.8,345.4,347.3,352z M500.5,351.5c-6.5,7-14.9,10.5-25,10.5c-10.7,0-19.4-3.7-26.1-11.2c-6.2-7-9.3-15.9-9.3-26.4
	c0-18.6,14.3-34.2,33.1-34.2c7.3,0,13.6,1.5,19.9,5v15.4c-5.1-3.5-11.5-6.8-17.8-6.8c-13.2,0-21,9.1-21,22.1
	c0,12.8,8.3,22.3,21.3,22.3c5.9,0,10.7-2.2,14.6-6.7c3.9-4.4,5.9-11,5.9-19.7V274c0-7.3,5.9-13.2,13.2-13.2c0,0,0,0,0,0h1v63.4
	C510.2,335.4,507,344.5,500.5,351.5z M540.4,283.6c-1.5,1.7-3.6,2.4-6.2,2.4c-4.9,0-8.3-3.6-8.3-8.4c0-5,3.4-8.3,8.3-8.3
	c4.7,0,8.3,3.5,8.3,8.3C542.6,279.9,541.9,281.9,540.4,283.6L540.4,283.6z M612.3,322c0-5.6-2.1-10-6.3-13.4
	c-3.8-3-8.6-4.6-14.4-4.6c-12.8,0-21,10.1-21,22.5c0,11.9,8.7,21.9,20.9,21.9c8.5,0,13-5,17.8-11.2V355c-2.5,1.9-5.3,3.9-8.2,5.1
	c-3,1.3-6.7,1.9-10.9,1.9c-20.4,0-33.8-17-33.8-36.5c0-10.1,3.1-18.4,9.4-24.9c6.6-6.9,15.4-10.3,26-10.3
	c20.2,0,34.7,11.7,34.7,32.8v37.5h-1c-7.3,0-13.2-5.9-13.2-13.2c0,0,0,0,0,0S612.3,322,612.3,322z M418.6,317.9
	c-1.8-5.6-4-8.3-9.2-11.2c-12.3-6.9-24.3-1-29.9,11.1L418.6,317.9z M407.8,361.8c-9,1.9-17.9,0.4-26.6-4.4
	c-8.4-4.7-14.1-11.8-16.9-21.1c-5.7-18.8,6-39.8,24.9-44.9c9.4-2.5,18.3-1.4,26.8,3.4c14.2,8,19.3,20.3,18.4,36.1l-57-0.1
	c0.8,6.5,4.8,11.5,10.4,14.7c5.7,3.2,10.9,4,15.8,2.4c5.4-1.7,9.8-6.1,13.3-10.2l11.6,8.5C423.8,354.7,417.4,359.8,407.8,361.8
	L407.8,361.8z M527.2,291.7h14.1v68.9h-1c-7.3,0-13.2-5.9-13.2-13.2c0,0,0,0,0,0V291.7L527.2,291.7z M47.2,360.6
	c-13.8,0-20.7-9.5-20.7-22.7v-50.1c0-7.3,5.9-13.2,13.2-13.2c0,0,0,0,0,0h1v17.1h23.9v13.7H40.6v34.1c0,5.8,2.6,7.4,8.1,7.4h15.8
	v13.7H47.2L47.2,360.6z M129.4,351.9c-7,6.7-15.4,10.1-25.2,10.1c-9.7,0-18-3.4-25-10.1c-7-6.8-10.5-15.4-10.5-25.7
	c0-20.2,15.4-35.8,35.5-35.8c9.7,0,18.1,3.4,25.1,10.2c7.1,6.8,10.6,15.4,10.6,25.7C139.9,336.5,136.4,345.1,129.4,351.9
	L129.4,351.9z M195.5,308.3c-2.1,3.5-3.7,6-4.8,7.5c-1.2,1.6-2.5,3-3.7,3.9c9.8,3.2,13.5,10,13.5,20.2v20.7h-1
	c-7.3,0-13.2-5.9-13.2-13.2v-6c0-6.6-2.9-11.1-9.9-11.1h-12.9v30.4h-1c-7.3,0-13.2-5.9-13.2-13.2V274c0-7.3,5.9-13.2,13.1-13.2
	c0,0,0,0,0,0h1v55.6h4.2c4.6,0,7.6-1.6,9.4-4.6l11.9-20.2l16.1,0L195.5,308.3L195.5,308.3z M268.6,351.9c-7,6.7-15.4,10.1-25.2,10.1
	c-9.7,0-18-3.4-25-10.1c-7-6.8-10.5-15.4-10.5-25.7c0-20.2,15.4-35.8,35.5-35.8c9.7,0,18.1,3.4,25.1,10.2
	c7.1,6.8,10.6,15.4,10.6,25.7C279.1,336.5,275.6,345.1,268.6,351.9L268.6,351.9z M258.4,310.1c-3.9-4.1-8.9-6.2-14.9-6.2
	c-13,0-20.8,9.5-20.8,22.2c0,12.5,8,22.2,20.8,22.2c12.8,0,20.8-9.7,20.8-22.2C264.3,319.5,262.3,314.2,258.4,310.1z M119.2,310.1
	c-3.9-4.1-8.9-6.2-14.9-6.2c-13,0-20.8,9.5-20.8,22.2c0,12.5,8,22.2,20.8,22.2s20.8-9.7,20.8-22.2
	C125,319.5,123.1,314.2,119.2,310.1z"/>
</svg>
